<?xml version="1.0" encoding="utf-8"?>
<!-- Generator: Adobe Illustrator 25.1.0, SVG Export Plug-In . SVG Version: 6.00 Build 0)  -->
<svg version="1.1" id="Camada_1" xmlns="http://www.w3.org/2000/svg" xmlns:xlink="http://www.w3.org/1999/xlink" x="0px" y="0px"
	 viewBox="0 0 989.6 317.9" style="enable-background:new 0 0 989.6 317.9;" xml:space="preserve">
<style type="text/css">
	.st0{fill:#C00D0D;}
	.st1{fill:#15335A;}
</style>
<g>
	<g>
		<path d="M20.9,241h18.5v4.8h-13v17h12.1v4.7H26.5v22h-5.5V241z"/>
		<path d="M65.2,280c0,3.9,0.2,6.9,0.3,9.5h-4.8l-0.4-3.7h-0.1c-1.1,1.7-3.7,4.3-7.5,4.3c-6.1,0-8.5-4.8-8.5-13.4v-22h5.5v21.3
			c0,5.5,0.9,9.5,4.7,9.5c3.2,0,4.7-3,5-4.6c0.2-0.9,0.3-2,0.3-3.2v-23h5.5V280z"/>
		<path d="M73,263.7c0-4.1-0.2-6.2-0.3-9h4.8l0.3,4.2H78c1.5-2.8,4.3-4.8,8-4.8c4.8,0,8.4,3.6,8.4,12v23.4h-5.5v-22.5
			c0-4.1-0.8-8.3-4.8-8.3c-2.3,0-4.5,1.9-5.3,5.7c-0.1,0.9-0.2,1.9-0.2,3.1v22H73V263.7z"/>
		<path d="M123.2,239.7v41.5c0,2.4,0.2,6.3,0.3,8.4h-4.8l-0.4-4.4h-0.2c-1.2,2.5-3.6,5-7.3,5c-5.9,0-10.2-6.4-10.2-17.9
			c0-12.4,5.1-18.2,10.5-18.2c2.5,0,5,1.2,6.3,4.2h0.1v-18.6H123.2z M117.7,267.9c0-0.7,0-1.5-0.1-2.3c-0.4-3.6-2.5-6.8-5.2-6.8
			c-4.6,0-6.2,6.4-6.2,13.4c0,7.3,1.9,13.3,5.9,13.3c1.7,0,4.1-0.9,5.3-6c0.1-0.6,0.2-1.4,0.2-2.3V267.9z"/>
		<path d="M144.7,289.5l-0.4-3.7h-0.2c-1.5,2.7-4,4.3-6.9,4.3c-4.7,0-8.3-4-8.3-9.9c0-8.7,7-12.6,14.8-12.7v-1.1
			c0-4.7-1.2-7.9-5.5-7.9c-2.2,0-4.1,0.7-5.8,1.8l-1.2-3.9c1.4-1.1,4.7-2.3,8.1-2.3c7,0,10,4.6,10,12.5v15.1c0,2.7,0,5.7,0.4,7.9
			H144.7z M143.9,271.5c-2.9,0-9.6,0.5-9.6,8.1c0,4.5,2.3,6.2,4.3,6.2c2.4,0,4.5-1.8,5.2-5.3c0.1-0.6,0.1-1.4,0.1-1.9V271.5z"/>
		<path d="M174.2,288.7c-1.2,0.6-3.1,1.2-5.4,1.3l-1.6,3.2c2.4,0.4,4.7,2.4,4.7,5.1c0,4.1-3.4,5.7-6.6,5.7c-1.8,0-3.5-0.6-4.8-1.3
			l1.2-3c1.2,0.7,2.2,1.1,3.6,1.1c1.4,0,2.6-0.5,2.6-2.2c0-1.9-2.2-2.9-5-3.2l2.7-5.7c-6.1-1.4-9.9-7.3-9.9-17.4
			c0-10,5-18.2,13.8-18.2c1.9,0,3.9,0.5,4.9,1.1l-1.1,4.5c-0.7-0.4-2.2-0.9-4-0.9c-5.5,0-8.1,6.6-8.1,13.5c0,8.1,3.1,13,8.2,13
			c1.5,0,2.7-0.4,4-0.9L174.2,288.7z"/>
		<path d="M192.9,289.5l-0.4-3.7h-0.2c-1.5,2.7-4,4.3-6.9,4.3c-4.7,0-8.3-4-8.3-9.9c0-8.7,7-12.6,14.8-12.7v-1.1
			c0-4.7-1.2-7.9-5.5-7.9c-2.2,0-4.1,0.7-5.8,1.8l-1.2-3.9c1.4-1.1,4.7-2.3,8.1-2.3c7,0,10,4.6,10,12.5v15.1c0,2.7,0,5.7,0.4,7.9
			H192.9z M180.5,249.1c0-3.8,1.5-6.8,4.5-6.8c1.4,0,2.5,0.6,3.5,1.2c1,0.6,1.9,1.2,2.9,1.2c1,0,1.7-0.5,1.8-2.6h3
			c0,4-1.4,6.5-4.5,6.5c-1.3,0-2.6-0.6-3.5-1.2c-1-0.6-1.8-1.2-2.7-1.2c-1.1,0-1.6,1-1.7,2.9H180.5z M192.1,271.5
			c-2.9,0-9.6,0.5-9.6,8.1c0,4.5,2.3,6.2,4.3,6.2c2.4,0,4.5-1.8,5.2-5.3c0.1-0.6,0.1-1.4,0.1-1.9V271.5z"/>
		<path d="M226.8,272.1c0,13.5-6.3,18-11.6,18c-6.3,0-11.3-5.7-11.3-17.9c0-12.8,5.7-18.1,11.7-18.1
			C221.7,254.1,226.8,259.9,226.8,272.1z M209.4,272.1c0,5.8,1,13.6,6.1,13.6c4.8,0,5.7-8.2,5.7-13.6c0-5.3-0.9-13.5-5.8-13.5
			C210.3,258.6,209.4,266.8,209.4,272.1z"/>
		<path d="M265.2,239.7v41.5c0,2.4,0.2,6.3,0.3,8.4h-4.8l-0.4-4.4h-0.2c-1.2,2.5-3.6,5-7.3,5c-5.9,0-10.2-6.4-10.2-17.9
			c0-12.4,5.1-18.2,10.5-18.2c2.5,0,5,1.2,6.3,4.2h0.1v-18.6H265.2z M259.8,267.9c0-0.7,0-1.5-0.1-2.3c-0.4-3.6-2.5-6.8-5.2-6.8
			c-4.6,0-6.2,6.4-6.2,13.4c0,7.3,1.9,13.3,5.9,13.3c1.7,0,4.1-0.9,5.3-6c0.1-0.6,0.2-1.4,0.2-2.3V267.9z"/>
		<path d="M276.9,272.6c0.1,10.7,4.3,13,8.3,13c2.4,0,4.4-0.6,5.8-1.4l0.9,4.1c-1.9,1.1-4.9,1.7-7.6,1.7c-8.4,0-12.7-6.8-12.7-17.5
			c0-11.3,4.8-18.4,11.7-18.4c7.1,0,9.9,7.5,9.9,15.4c0,1.3,0,2.2-0.1,3.1H276.9z M287.9,268.5c0.1-7-2.5-10.1-5.2-10.1
			c-3.6,0-5.5,5.3-5.7,10.1H287.9z"/>
		<path d="M324.3,289.5l-0.4-3.7h-0.2c-1.5,2.7-4,4.3-6.9,4.3c-4.7,0-8.3-4-8.3-9.9c0-8.7,7-12.6,14.8-12.7v-1.1
			c0-4.7-1.2-7.9-5.5-7.9c-2.2,0-4.1,0.7-5.8,1.8l-1.2-3.9c1.4-1.1,4.7-2.3,8.1-2.3c7,0,10,4.6,10,12.5v15.1c0,2.7,0,5.7,0.4,7.9
			H324.3z M323.5,271.5c-2.9,0-9.6,0.5-9.6,8.1c0,4.5,2.3,6.2,4.3,6.2c2.4,0,4.5-1.8,5.2-5.3c0.1-0.6,0.1-1.4,0.1-1.9V271.5z"/>
		<path d="M335.8,283.8c1.2,0.8,3.4,1.8,5.6,1.8c3.2,0,5.1-1.9,5.1-5c0-2.7-0.9-4.5-4.5-6.8c-4.5-3-7-5.9-7-9.9
			c0-5.6,4.2-9.7,9.6-9.7c2.7,0,4.8,0.9,6.3,1.8l-1.5,4.2c-1.3-0.9-2.8-1.5-4.6-1.5c-3,0-4.5,2.2-4.5,4.4c0,2.4,0.9,3.7,4.3,6.1
			c4,2.6,7.2,5.8,7.2,10.6c0,7-4.8,10.4-10.4,10.4c-2.6,0-5.4-0.8-6.9-2L335.8,283.8z"/>
		<path d="M356.6,283.8c1.2,0.8,3.4,1.8,5.6,1.8c3.2,0,5.1-1.9,5.1-5c0-2.7-0.9-4.5-4.5-6.8c-4.5-3-7-5.9-7-9.9
			c0-5.6,4.2-9.7,9.6-9.7c2.7,0,4.8,0.9,6.3,1.8l-1.5,4.2c-1.3-0.9-2.8-1.5-4.6-1.5c-3,0-4.5,2.2-4.5,4.4c0,2.4,0.9,3.7,4.3,6.1
			c4,2.6,7.2,5.8,7.2,10.6c0,7-4.8,10.4-10.4,10.4c-2.6,0-5.4-0.8-6.9-2L356.6,283.8z"/>
		<path d="M384.3,245.7c0.1,2.2-1.3,3.6-3.4,3.6c-1.8,0-3.2-1.4-3.2-3.6c0-2.2,1.4-3.6,3.2-3.6C383,242.1,384.3,243.5,384.3,245.7z
			 M378.4,289.5v-34.9h5.5v34.9H378.4z"/>
		<path d="M390.7,283.8c1.2,0.8,3.4,1.8,5.6,1.8c3.2,0,5.1-1.9,5.1-5c0-2.7-0.9-4.5-4.5-6.8c-4.5-3-7-5.9-7-9.9
			c0-5.6,4.2-9.7,9.6-9.7c2.7,0,4.8,0.9,6.3,1.8l-1.5,4.2c-1.3-0.9-2.8-1.5-4.6-1.5c-3,0-4.5,2.2-4.5,4.4c0,2.4,0.9,3.7,4.3,6.1
			c4,2.6,7.2,5.8,7.2,10.6c0,7-4.8,10.4-10.4,10.4c-2.6,0-5.4-0.8-6.9-2L390.7,283.8z"/>
		<path d="M419.2,245.4v9.2h6.7v4.3h-6.7v20.7c0,4.5,1.7,5.8,3.7,5.8c0.9,0,1.6-0.1,2.2-0.2l0.2,4.3c-1,0.4-2.3,0.6-4.1,0.6
			c-2.2,0-4.1-0.6-5.5-2.1c-1.4-1.6-2.1-4-2.1-8.8v-20.2h-4.3v-4.3h4.3V247L419.2,245.4z"/>
		<path d="M434.1,272.6c0.1,10.7,4.3,13,8.3,13c2.4,0,4.4-0.6,5.8-1.4l0.9,4.1c-1.9,1.1-4.9,1.7-7.6,1.7c-8.4,0-12.7-6.8-12.7-17.5
			c0-11.3,4.8-18.4,11.7-18.4c7.1,0,9.9,7.5,9.9,15.4c0,1.3,0,2.2-0.1,3.1H434.1z M442.2,240.4l5.7,9.7h-4.1l-3.4-6.2h-0.1l-3.3,6.2
			h-4.2l5.7-9.7H442.2z M445.1,268.5c0.1-7-2.5-10.1-5.2-10.1c-3.6,0-5.5,5.3-5.7,10.1H445.1z"/>
		<path d="M456.4,263.7c0-4.1-0.2-6.2-0.3-9h4.8l0.3,4.2h0.1c1.5-2.8,4.3-4.8,8-4.8c4.8,0,8.4,3.6,8.4,12v23.4h-5.5v-22.5
			c0-4.1-0.8-8.3-4.8-8.3c-2.3,0-4.5,1.9-5.3,5.7c-0.1,0.9-0.2,1.9-0.2,3.1v22h-5.5V263.7z"/>
		<path d="M502.6,288.7c-1.2,0.7-3.3,1.3-5.8,1.3c-7.6,0-12.8-6.1-12.8-17.7c0-10,5-18.2,13.8-18.2c1.9,0,3.9,0.5,4.9,1.1l-1.1,4.5
			c-0.7-0.4-2.2-0.9-4-0.9c-5.5,0-8.1,6.6-8.1,13.5c0,8.1,3.1,13,8.2,13c1.5,0,2.7-0.4,4-0.9L502.6,288.7z"/>
		<path d="M513.3,245.7c0.1,2.2-1.3,3.6-3.4,3.6c-1.8,0-3.2-1.4-3.2-3.6c0-2.2,1.4-3.6,3.2-3.6C512,242.1,513.3,243.5,513.3,245.7z
			 M507.3,289.5v-34.9h5.5v34.9H507.3z"/>
		<path d="M534.4,289.5l-0.4-3.7h-0.2c-1.5,2.7-4,4.3-6.9,4.3c-4.7,0-8.3-4-8.3-9.9c0-8.7,7-12.6,14.8-12.7v-1.1
			c0-4.7-1.2-7.9-5.5-7.9c-2.2,0-4.1,0.7-5.8,1.8l-1.2-3.9c1.4-1.1,4.7-2.3,8.1-2.3c7,0,10,4.6,10,12.5v15.1c0,2.7,0,5.7,0.4,7.9
			H534.4z M533.6,271.5c-2.9,0-9.6,0.5-9.6,8.1c0,4.5,2.3,6.2,4.3,6.2c2.4,0,4.5-1.8,5.2-5.3c0.1-0.6,0.1-1.4,0.1-1.9V271.5z"/>
		<path d="M571.9,289.5l-0.4-3.7h-0.2c-1.5,2.7-4,4.3-6.9,4.3c-4.7,0-8.3-4-8.3-9.9c0-8.7,7-12.6,14.8-12.7v-1.1
			c0-4.7-1.2-7.9-5.5-7.9c-2.2,0-4.1,0.7-5.8,1.8l-1.2-3.9c1.4-1.1,4.7-2.3,8.1-2.3c7,0,10,4.6,10,12.5v15.1c0,2.7,0,5.7,0.4,7.9
			H571.9z M571.1,271.5c-2.9,0-9.6,0.5-9.6,8.1c0,4.5,2.3,6.2,4.3,6.2c2.5,0,4.5-1.8,5.2-5.3c0.1-0.6,0.1-1.4,0.1-1.9V271.5z"/>
		<path d="M605.8,272.1c0,13.5-6.3,18-11.6,18c-6.3,0-11.3-5.7-11.3-17.9c0-12.8,5.7-18.1,11.7-18.1
			C600.7,254.1,605.8,259.9,605.8,272.1z M588.4,272.1c0,5.8,1,13.6,6.1,13.6c4.8,0,5.7-8.2,5.7-13.6c0-5.3-0.9-13.5-5.8-13.5
			C589.3,258.6,588.4,266.8,588.4,272.1z"/>
		<path d="M622.3,283.8c1.2,0.8,3.4,1.8,5.6,1.8c3.2,0,5.1-1.9,5.1-5c0-2.7-0.9-4.5-4.5-6.8c-4.5-3-7-5.9-7-9.9
			c0-5.6,4.2-9.7,9.6-9.7c2.7,0,4.8,0.9,6.3,1.8l-1.5,4.2c-1.3-0.9-2.8-1.5-4.6-1.5c-3,0-4.5,2.2-4.5,4.4c0,2.4,0.9,3.7,4.3,6.1
			c4,2.6,7.2,5.8,7.2,10.6c0,7-4.8,10.4-10.4,10.4c-2.6,0-5.4-0.8-6.9-2L622.3,283.8z"/>
		<path d="M648,272.6c0.1,10.7,4.3,13,8.3,13c2.4,0,4.4-0.6,5.8-1.4l0.9,4.1c-1.9,1.1-4.9,1.7-7.6,1.7c-8.4,0-12.7-6.8-12.7-17.5
			c0-11.3,4.8-18.4,11.7-18.4c7.1,0,9.9,7.5,9.9,15.4c0,1.3,0,2.2-0.1,3.1H648z M658.9,268.5c0.1-7-2.5-10.1-5.2-10.1
			c-3.6,0-5.5,5.3-5.7,10.1H658.9z"/>
		<path d="M670.2,263.7c0-3-0.2-6.4-0.3-9h5l0.3,5.5h0.1c1.2-3.3,4.1-6.1,7.3-6.1c0.4,0,0.8,0.1,1.2,0.1v5.7
			c-0.4-0.1-0.7-0.1-1.2-0.1c-3.5,0-6.1,3.2-6.7,7.3c-0.1,0.9-0.2,2-0.2,3.2v19.3h-5.5V263.7z"/>
		<path d="M692.7,254.7l4.4,19.6c0.5,2.4,1.1,5.5,1.5,8.5h0.2c0.4-2.9,0.9-5.8,1.4-8.5l4.3-19.6h5.5l-9.1,34.9h-5l-9.1-34.9H692.7z"
			/>
		<path d="M720.9,245.7c0.1,2.2-1.3,3.6-3.4,3.6c-1.8,0-3.2-1.4-3.2-3.6c0-2.2,1.4-3.6,3.2-3.6C719.6,242.1,720.9,243.5,720.9,245.7
			z M714.9,289.5v-34.9h5.5v34.9H714.9z"/>
		<path d="M749.1,239.7v41.5c0,2.4,0.2,6.3,0.3,8.4h-4.8l-0.4-4.4h-0.2c-1.2,2.5-3.6,5-7.3,5c-5.9,0-10.2-6.4-10.2-17.9
			c0-12.4,5.1-18.2,10.5-18.2c2.5,0,5,1.2,6.3,4.2h0.1v-18.6H749.1z M743.7,267.9c0-0.7,0-1.5-0.1-2.3c-0.4-3.6-2.5-6.8-5.2-6.8
			c-4.6,0-6.2,6.4-6.2,13.4c0,7.3,1.9,13.3,5.9,13.3c1.7,0,4.1-0.9,5.3-6c0.1-0.6,0.2-1.4,0.2-2.3V267.9z"/>
		<path d="M778.3,272.1c0,13.5-6.3,18-11.6,18c-6.3,0-11.3-5.7-11.3-17.9c0-12.8,5.7-18.1,11.7-18.1
			C773.3,254.1,778.3,259.9,778.3,272.1z M760.9,272.1c0,5.8,1,13.6,6.1,13.6c4.8,0,5.7-8.2,5.7-13.6c0-5.3-0.9-13.5-5.8-13.5
			C761.9,258.6,760.9,266.8,760.9,272.1z"/>
		<path d="M784.4,263.7c0-3-0.2-6.4-0.3-9h5l0.3,5.5h0.1c1.2-3.3,4.1-6.1,7.3-6.1c0.4,0,0.8,0.1,1.2,0.1v5.7
			c-0.4-0.1-0.7-0.1-1.2-0.1c-3.5,0-6.1,3.2-6.7,7.3c-0.1,0.9-0.2,2-0.2,3.2v19.3h-5.5V263.7z"/>
		<path d="M813.6,265.5c0-5.3-0.2-8.4-0.3-10.9h5l0.3,4.5h0.1c1.9-3.7,4.6-5,7.3-5c6.1,0,10.1,6.5,10.1,17.9
			c0,12.9-5.3,18.1-10.8,18.1c-3.2,0-5.1-2.1-6.1-4h-0.1v17.3h-5.5V265.5z M819.2,276.7c0,1.1,0,2.1,0.2,2.9c1.1,5,3.6,5.9,5.1,5.9
			c4.6,0,6.1-6.3,6.1-13.4c0-7.2-1.7-13.3-6.1-13.3c-2.5,0-4.8,3.2-5.1,6.3c-0.1,0.9-0.1,1.7-0.1,2.7V276.7z"/>
		<path d="M863.3,280c0,3.9,0.2,6.9,0.3,9.5h-4.8l-0.4-3.7h-0.1c-1.1,1.7-3.7,4.3-7.5,4.3c-6.1,0-8.5-4.8-8.5-13.4v-22h5.5v21.3
			c0,5.5,0.9,9.5,4.7,9.5c3.2,0,4.7-3,5-4.6c0.2-0.9,0.3-2,0.3-3.2v-23h5.5V280z M861.9,240.4l-7.6,9.7h-3.7l5.5-9.7H861.9z"/>
		<path d="M870.8,289.5c0.1-2,0.3-6,0.3-8.4v-41.5h5.5v19.1h0.1c1.8-3.5,4.4-4.7,7.3-4.7c5.4,0,9.5,6.3,9.5,17.7
			c0,12.6-5.2,18.4-10.6,18.4c-3.7,0-5.5-2.2-6.9-5.1h-0.2l-0.4,4.5H870.8z M876.6,277.2c0,0.8,0,1.6,0.2,2.2
			c1.3,5.2,3.7,6.1,5.2,6.1c4.5,0,6.1-6.1,6.1-13.5c0-7-1.7-13.2-6.1-13.2c-2.6,0-4.8,3.2-5.2,6.2c-0.1,0.8-0.1,1.7-0.1,2.4V277.2z"
			/>
		<path d="M899.9,239.7h5.5v49.9h-5.5V239.7z"/>
		<path d="M919.6,245.7c0.1,2.2-1.3,3.6-3.4,3.6c-1.8,0-3.2-1.4-3.2-3.6c0-2.2,1.4-3.6,3.2-3.6C918.3,242.1,919.6,243.5,919.6,245.7
			z M913.6,289.5v-34.9h5.5v34.9H913.6z"/>
		<path d="M943.9,288.7c-1.2,0.7-3.3,1.3-5.8,1.3c-7.6,0-12.8-6.1-12.8-17.7c0-10,5-18.2,13.8-18.2c1.9,0,3.9,0.5,4.9,1.1l-1.1,4.5
			c-0.7-0.4-2.2-0.9-4-0.9c-5.5,0-8.1,6.6-8.1,13.5c0,8.1,3.1,13,8.2,13c1.5,0,2.7-0.4,4-0.9L943.9,288.7z"/>
		<path d="M969.7,272.1c0,13.5-6.3,18-11.6,18c-6.3,0-11.3-5.7-11.3-17.9c0-12.8,5.7-18.1,11.7-18.1
			C964.6,254.1,969.7,259.9,969.7,272.1z M952.3,272.1c0,5.8,1,13.6,6.1,13.6c4.8,0,5.7-8.2,5.7-13.6c0-5.3-0.9-13.5-5.8-13.5
			C953.2,258.6,952.3,266.8,952.3,272.1z"/>
	</g>
	<g>
		<path class="st0" d="M145.9,74.5c-7.3-7.6-17.7-10.4-25.9-6.2c-10.5,5.5-13.6,20.4-6.8,33.3c6.7,13,20.7,19,31.2,13.6
			c9.1-4.7,12.6-16.5,9.1-27.9c28.4,50.4-17.8,88.5-55.2,52.7C40.8,85,108-40.6,174.7,90.2c-48.6-137.9-195-69.4-144.4,53
			C82,268.3,246.8,187.2,145.9,74.5"/>
	</g>
	<g>
		<path class="st1" d="M268.7,124.2h13.1v34.9c-1.1,0.4-3,0.6-5.6,0.6c-13.3,0-26.7-12.6-26.7-47.3c0-37.4,15.2-50.5,34.4-50.5
			c6.8,0,12.2,1.1,16.5,3.2l4.7-24.2c-4.5-2.1-12.4-4.3-23.3-4.3c-31,0-60.8,21.8-61.4,74.3c-0.4,24.8,6.2,46.2,18.6,58.2
			c9.4,9.6,22,14.3,38.7,14.3c10.5,0,23.5-2.6,29.7-5.1v-77h-38.7V124.2z"/>
	</g>
	<g>
		<polygon class="st1" points="349.7,118.9 382.4,118.9 382.4,95.6 349.7,95.6 349.7,62.4 384.3,62.4 384.3,38 321.6,38 
			321.6,182.2 386.7,182.2 386.7,157.8 349.7,157.8 		"/>
	</g>
	<g>
		<path class="st1" d="M419.7,38l-31.2,144.2h27.2l6.4-33h25.9l6.2,33h27.2L453.3,38H419.7z M424.8,127.5l5.4-30.2
			c1.5-8.3,3.6-23.1,5.1-32.7h0.6c1.3,9.4,3.2,24,4.7,32.7l4.7,30.2H424.8z"/>
	</g>
	<g>
		<path class="st1" d="M558.8,48.5c-9.2-8.8-22.5-11.1-39.2-11.1c-10.7,0-21.4,1.1-29.3,2.8v142.1h28v-53.7c1.9,0.2,3.6,0.2,5.6,0.2
			c11.8,0,26.1-4.3,35.1-13.9c7.5-7.9,12.2-19,12.2-34.7C571.2,68,567.4,56,558.8,48.5 M523.1,106.1c-1.7,0-3.2,0-4.7-0.2V61.1
			c1.7-0.6,4.3-1.1,6.8-1.1c13.1,0,18.2,9.8,18.2,22.5C543.4,96,537.2,106.1,523.1,106.1"/>
	</g>
	<g>
		<path class="st0" d="M635,121.8c-9.9-6.8-12.4-10.5-12.4-17.1c0-6.6,4.3-12.8,12.8-12.8c5.4,0,9.5,1.9,13.4,4.5l4.1-12
			c-4.1-2.5-9.9-5.2-17.8-5.2c-15.5,0-27.4,11.3-27.4,27.7c0,11.3,7,20,20,28.3c10.1,6.8,12.8,12,12.8,19.6
			c0,8.9-5.8,14.4-14.7,14.4c-6.4,0-12.6-2.9-16.1-5.2l-3.9,12c4.3,3.5,12.4,5.8,19.6,5.8c16.5,0,30.1-9.7,30.1-29.7
			C655.6,138.3,646.5,129.2,635,121.8"/>
	</g>
	<g>
		<path class="st0" d="M724.8,114.6c0-22.3-8.5-35.3-28.5-35.3c-9.9,0-19,3.5-23.3,6.6l3.5,11.1c4.7-3.3,10.3-5.2,16.5-5.2
			c12.4,0,15.9,9.1,15.9,22.5v3.1c-22.5,0.2-42.5,11.1-42.5,36.3c0,17.3,10.3,28.5,23.5,28.5c8.7,0,15.7-4.5,20-12.2h0.6l1,10.5
			h14.2c-0.8-6.4-1-15.1-1-22.7V114.6z M709.3,149c0,1.9-0.2,3.9-0.6,5.8c-1.9,9.9-7.6,15.1-14.6,15.1c-5.6,0-12.2-4.5-12.2-17.7
			c0-21.7,19.2-23.3,27.4-23.3V149z"/>
	</g>
	<g>
		<polygon class="st0" points="803.1,39.9 786.8,39.9 770.9,67.7 781.5,67.7 		"/>
	</g>
	<g>
		<path class="st0" d="M807.2,80.7h-15.9v65.8c0,3.3-0.2,6.4-0.8,9.1c-0.8,4.5-5,13.2-14.2,13.2c-10.9,0-13.4-11.6-13.4-27.2V80.7
			H747v63.1c0,24.8,7,38.4,24.3,38.4c10.7,0,18.4-7.2,21.3-12.2h0.4l1.2,10.5h13.8c-0.2-7.4-0.8-16.3-0.8-27.2V80.7z"/>
	</g>
	<g>
		<path class="st0" d="M889.7,37.8H874V91h-0.4c-3.9-8.5-10.9-11.8-18.4-11.8c-15.3,0-29.9,16.5-29.9,51.8c0,33,12.2,51.2,28.9,51.2
			c10.7,0,17.7-7,21-14h0.6l1,12.4h13.6c-0.2-5.8-0.8-17.1-0.8-23.9V37.8z M874,145.3c0,2.5-0.2,4.7-0.6,6.6
			c-3.5,14.4-10.3,17.1-15.3,17.1c-11.6,0-16.9-16.9-16.9-38c0-19.8,4.5-38.2,17.8-38.2c7.6,0,13.8,8.9,14.9,19.4
			c0.2,2.1,0.2,4.5,0.2,6.6V145.3z"/>
	</g>
	<g>
		<path class="st0" d="M969.8,123c0-22.3-8.3-43.7-28.5-43.7c-20,0-33.8,20.2-33.8,52.4c0,30.5,12.4,50.1,36.3,50.1
			c8.1,0,16.5-1.9,22.1-4.8l-2.7-11.6c-3.9,2.1-9.5,3.7-16.5,3.7c-11.3,0-23.5-6.4-23.5-37.1h46.2
			C969.6,129.6,969.8,126.9,969.8,123 M954.6,120.3h-31.1c0.6-13.6,5.8-28.7,16.3-28.7C947.3,91.6,954.8,100.5,954.6,120.3"/>
	</g>
</g>
</svg>
